<?xml version="1.0" encoding="utf-8"?>
<!-- Generator: Adobe Illustrator 25.2.0, SVG Export Plug-In . SVG Version: 6.00 Build 0)  -->
<svg version="1.1" id="Layer_1" xmlns="http://www.w3.org/2000/svg" xmlns:xlink="http://www.w3.org/1999/xlink" x="0px" y="0px"
	 viewBox="0 0 658.67 288" style="enable-background:new 0 0 658.67 288;" xml:space="preserve">
<style type="text/css">
	.st0{fill:#197AA5;}
	.st1{fill:#69B25D;}
</style>
<g>
	<path class="st0" d="M651.21,169.44c0,3.23-1.15,6.01-3.46,8.33c-2.3,2.32-5.07,3.48-8.29,3.48c-3.24,0-6.02-1.16-8.34-3.48
		c-2.31-2.32-3.47-5.1-3.47-8.35c0-3.24,1.15-6.02,3.46-8.34c2.31-2.31,5.1-3.47,8.38-3.47c3.22,0,5.98,1.16,8.27,3.47
		C650.06,163.4,651.21,166.19,651.21,169.44z M649.1,169.42c0-2.71-0.94-5.04-2.83-6.99c-1.89-1.95-4.15-2.92-6.78-2.92
		c-2.69,0-4.98,0.97-6.88,2.92c-1.89,1.94-2.84,4.28-2.84,7c0,2.75,0.95,5.09,2.85,7.03c1.9,1.94,4.18,2.91,6.83,2.91
		c2.64,0,4.9-0.97,6.8-2.91C648.15,174.51,649.1,172.17,649.1,169.42z M645.36,176.23h-3.06l-2.21-5.5h-3.26v5.5h-2.91v-13.6h6.31
		c1.73,0,3.01,0.38,3.86,1.13s1.27,1.72,1.27,2.91c0,1.69-0.84,2.89-2.52,3.59L645.36,176.23z M636.84,168.58h2.99
		c1.69,0,2.54-0.65,2.54-1.94c0-1.24-0.77-1.86-2.33-1.86h-3.21V168.58z"/>
</g>
<g>
	<path class="st0" d="M147,6.59c5.91-0.01,11.83-0.01,17.74-0.01c0.02,40.58,0.01,81.16,0.01,121.75c-9.7-0.02-19.4,0.04-29.1-0.02
		c-5.1-0.07-10.17-2.21-13.46-6.16c-3.35-3.54-4.55-8.54-4.45-13.29c0.05-15.69-0.05-31.37,0.04-47.05c0-6.33,3.49-12.58,9.12-15.57
		c6.09-3.59,13.42-1.68,20.09-2.16C147.01,31.58,146.99,19.09,147,6.59z M135.73,57.87c0.04,18.56,0.01,37.13,0.02,55.7
		c3.66,0.01,7.33,0.01,11,0.01c0.01-18.57-0.01-37.14,0.01-55.71C143.08,57.85,139.4,57.85,135.73,57.87z"/>
</g>
<path class="st0" d="M14,24.8c6-0.02,12-0.02,18,0c0,6.51-0.01,13.02,0.01,19.53c5.48-0.01,10.97,0.02,16.45-0.03
	c0.11,4.86,0.07,9.71,0.06,14.57C43.01,58.88,37.5,58.86,32,58.88c0.01,18.48-0.01,36.97,0,55.45c7.75,0,15.49,0.01,23.23-0.01
	c0.03,4.58,0.01,9.17,0.02,13.75c-7.91,0.01-15.82,0-23.73,0.02c-7.63,0.24-14.84-5.43-16.75-12.76c-0.71-2.76-0.77-5.63-0.78-8.46
	c0.03-16-0.01-31.99,0.02-47.99c-2.67-0.01-5.34-0.01-8.02-0.02C6.01,54.02,6,49.18,6,44.34c2.66-0.02,5.32-0.02,7.99-0.01
	C14.01,37.82,14,31.31,14,24.8z"/>
<g>
	<path class="st0" d="M76,44.56c5.79-1.24,11.79-0.77,17.67-0.6c8.62,0.47,16.18,8.08,16.32,16.76c0.04,16.72,0,33.45,0.01,50.17
		c0.11,9.23-8.23,17.59-17.51,17.2c-6.27-0.41-12.9,1.07-18.87-1.38c-6.25-2.72-10.54-9.22-10.58-16.04
		C62.95,94.39,63,78.1,63.02,61.82C62.89,54.01,68.44,46.54,76,44.56z M81,58.58c-0.01,18.58,0,37.16,0,55.74
		c3.66,0.01,7.33,0.01,11,0.01c-0.01-18.59,0.01-37.17-0.01-55.75C88.33,58.58,84.66,58.58,81,58.58z"/>
</g>
<g>
	<path class="st0" d="M185.95,44.51c5.11-0.9,10.36-0.23,15.52-0.45c7.46-0.45,14.7,4.64,17.06,11.67
		c1.19,3.23,1.02,6.73,1.02,10.11c-0.06,15,0.02,29.99-0.02,44.99c-0.04,6.4-3.83,12.67-9.62,15.46
		c-5.35,2.85-11.61,1.87-17.42,2.05c-5.22,0.17-10.77-1.15-14.47-5.07c-4.02-3.62-5.7-9.12-5.55-14.42
		c0.04-15.69-0.07-31.38,0.05-47.07C172.42,53.85,178.18,46.29,185.95,44.51z M190.53,58.86c0,18.5-0.02,36.99,0.01,55.48
		c3.63-0.01,7.27-0.02,10.92,0c0.01-18.49,0-36.98,0-55.47C197.81,58.87,194.17,58.87,190.53,58.86z"/>
</g>
<path class="st1" d="M528.07,148.97c6.71-7,13.32-14.11,20.18-20.97c2.56,2.5,5.15,4.99,7.5,7.7c-6.86,6.64-13.27,13.7-20.13,20.33
	C533.09,153.68,530.55,151.35,528.07,148.97z"/>
<path class="st1" d="M323.42,138.12c6.04-0.05,12.08-0.03,18.12-0.01c0.14,6.49-0.08,12.98,0.09,19.48
	c5.38-0.04,10.77-0.05,16.16-0.02c0.02,4.84,0.01,9.67,0,14.5c-5.39,0.04-10.77,0.05-16.14,0.01c-0.17,18.5,0,37-0.05,55.49
	c7.71-0.02,15.43-0.03,23.15,0.01c0.03,4.56,0.01,9.13,0.03,13.7c-8.73-0.14-17.48,0.77-26.19-0.02c-8.46-1-15.09-8.93-15.07-17.37
	c-0.28-17.26-0.01-34.54-0.13-51.8c-2.6,0.02-5.2,0.02-7.79,0.03c-0.29-4.85-0.32-9.72-0.02-14.57c2.6,0.01,5.2,0.01,7.81,0.02
	C323.43,151.09,323.39,144.6,323.42,138.12z"/>
<path class="st1" d="M20.82,158.37c5.42-1.47,11.11-0.61,16.65-0.8c7.34-0.12,14.33,4.81,16.68,11.77
	c2.02,6.96,0.68,14.36,1.03,21.51c-5.99,0.06-12,0.27-17.98-0.16c0-6.12,0.01-12.24-0.01-18.36c-3.65-0.02-7.31-0.03-10.96,0
	c0,18.4,0.01,36.79,0,55.19c3.66,0.04,7.32,0.05,10.98,0.03c-0.02-5.74,0-11.47-0.01-17.21c6-0.04,12-0.02,18-0.02
	c-0.39,8.71,2.03,19.26-5.21,25.93c-6.27,6.84-16.28,5.24-24.58,5.19c-9.2-0.06-17.26-8.44-16.96-17.64
	c0.07-16.33-0.14-32.67,0.1-49C8.33,167.35,13.83,160.52,20.82,158.37z"/>
<g>
	<path class="st1" d="M76.67,158.03c4.87-0.88,9.86-0.36,14.79-0.47c6.25-0.12,12.59,3.1,15.7,8.61c2.09,3.48,2.72,7.61,2.65,11.61
		c-0.09,15.34,0.08,30.68-0.06,46.01c0.02,8.24-6.25,16.01-14.42,17.37c-5.59,0.64-11.26,0.51-16.87,0.16
		c-8.59-0.78-15.78-8.78-15.48-17.44c0.01-16.36,0.02-32.72,0-49.08C62.91,166.92,69.04,159.68,76.67,158.03z M80.81,172.32
		c-0.09,18.41-0.03,36.81-0.04,55.22c3.68,0.03,7.35,0.03,11.03-0.05c-0.03-18.37,0-36.75-0.01-55.13
		C88.12,172.32,84.46,172.32,80.81,172.32z"/>
</g>
<path class="st1" d="M117.23,157.58c21.42-0.04,42.83-0.03,64.25-0.01c4.73-0.03,9.49,2.14,12.25,6.04
	c4.25,5.79,4.93,13.28,4.85,20.25c-0.12,19.34,0.17,38.69-0.14,58.03c-5.89-0.02-11.78,0.05-17.66-0.05
	c-0.01-23.17-0.01-46.33,0-69.49c-3.66-0.04-7.32-0.04-10.97-0.03c-0.02,23.14-0.01,46.27,0,69.41c-5.86,0.24-11.73,0.24-17.59,0.02
	c0-23.14,0.04-46.29-0.02-69.43c-3.66,0-7.33,0-10.99,0.03c-0.01,23.13-0.04,46.26,0.02,69.4c-5.94,0.22-11.88,0.19-17.81-0.01
	c-0.05-23.14,0.05-46.29-0.05-69.43c-2.05,0-4.1,0-6.14-0.01C117.18,167.39,117.18,162.48,117.23,157.58z"/>
<g>
	<path class="st1" d="M207.83,168c2.64-6.11,9.04-10.33,15.69-10.42c4.62-0.01,9.25-0.19,13.87,0.11
		c8.53,0.65,15.83,8.56,15.61,17.14c-0.02,15.69-0.04,31.38,0.01,47.07c0.72,6.7-2.45,13.69-8.34,17.11
		c-6.09,3.92-13.62,2.16-20.42,2.57c-0.02,12.38-0.01,24.76-0.01,37.13c-5.99,0.31-12.01,0.33-18,0.03
		c-0.02-31.66-0.01-63.31-0.01-94.97C206.34,178.5,205.56,172.94,207.83,168z M224.24,172.35c-0.01,18.46,0.03,36.91-0.03,55.37
		c3.67,0.06,7.35,0.06,11.02,0.01c-0.07-18.46,0.02-36.93-0.04-55.39C231.53,172.32,227.88,172.31,224.24,172.35z"/>
</g>
<path class="st1" d="M261.01,224.92c-0.03-22.45-0.05-44.91,0.02-67.37c5.91,0.03,11.82-0.01,17.73,0.02
	c0.02,23.33-0.02,46.65,0.02,69.97c3.67,0.04,7.35,0.04,11.03-0.06c-0.03-23.3-0.03-46.59,0-69.89c5.99-0.05,11.98-0.05,17.97-0.02
	c0.04,23.33,0.03,46.65,0.01,69.97c1.2,0,2.4,0,3.61,0.01c0.33,4.65,0.18,9.31,0.18,13.97c-10.67,0.07-21.34,0.07-32.01,0.02
	C270.23,242.07,261.19,234.43,261.01,224.92z"/>
<g>
	<path class="st1" d="M372.69,172.07c1.51-8.29,9.3-14.8,17.77-14.51c6.2,0.32,12.84-1.07,18.66,1.68
		c5.94,2.74,10.14,8.99,10.08,15.58c0.03,17.56-0.01,35.13,0.01,52.69c1.39,0.01,2.78,0.03,4.19,0.05c0.31,4.59,0.31,9.21-0.03,13.8
		c-10.64-0.2-21.27,0.21-31.9,0.18c-5.92,0.24-11.92-2.34-15.47-7.13c-2.81-3.55-3.64-8.2-3.58-12.62
		c0.07-7.03-0.11-14.07,0.22-21.09c0.36-8.29,7.59-15.48,15.81-16.11c4.24-0.21,8.5,0.02,12.75-0.07c0.01-4.07,0.01-8.14-0.04-12.2
		C391.67,172.27,382.18,171.99,372.69,172.07z M390.59,199.1c-0.07,9.49-0.06,18.98-0.01,28.47c3.54-0.01,7.08-0.01,10.62-0.03
		c0.01-9.47,0.01-18.93,0-28.4C397.66,199.13,394.12,199.13,390.59,199.1z"/>
</g>
<path class="st1" d="M431.55,174.82c-0.36-9.13,7.87-17.22,16.9-17.25c4.67,0.01,9.36-0.15,14.03,0.09
	c8.07,0.7,14.98,7.69,15.6,15.76c0.35,5.7,0.07,11.41,0.14,17.12c-6-0.03-12.01,0.07-18.01-0.06c0.02-6.06,0.03-12.11-0.01-18.16
	c-3.67,0-7.33,0-10.99,0.03c0,18.39-0.01,36.78,0.01,55.17c3.66,0.05,7.33,0.05,11.01,0.03c-0.01-5.74,0-11.48,0-17.21
	c5.99-0.05,11.98-0.01,17.97-0.03c-0.15,5.91,0.55,11.91-0.53,17.76c-1.73,7.29-8.57,13.09-16.09,13.34
	c-5.05,0.24-10.13,0.34-15.16-0.16c-8.42-1-15.18-8.94-14.99-17.39C431.47,207.51,431.29,191.16,431.55,174.82z"/>
<path class="st1" d="M486.02,241.53c0.02-28.03-0.07-56.07,0.04-84.1c4.74,0.27,9.85,1.02,13.51,4.36
	c3.42,2.97,5.05,7.55,4.98,12.01c0.01,22.58,0.04,45.16-0.01,67.74C498.36,241.58,492.19,241.58,486.02,241.53z"/>
<g>
	<path class="st1" d="M524.86,158.36c5.09-1.27,10.39-0.73,15.58-0.79c6.55-0.15,13.18,3.32,16.27,9.18
		c2.15,3.63,2.36,7.97,2.3,12.08c-0.12,15.34,0.12,30.7-0.11,46.04c-0.31,8.94-8.38,16.67-17.33,16.6
		c-6.78-0.11-14.2,1.23-20.39-2.28c-5.49-2.95-9.04-9.11-8.96-15.33c0.01-16.34-0.01-32.67,0.01-49.01
		C512.23,167.35,517.67,160.37,524.86,158.36z M530.02,172.35c-0.03,18.39,0.03,36.78-0.03,55.18c3.68,0.05,7.36,0.06,11.05-0.07
		c-0.11-18.37-0.02-36.74-0.05-55.11C537.33,172.31,533.67,172.31,530.02,172.35z"/>
</g>
<path class="st1" d="M566.77,157.57c11.57-0.01,22.8-0.06,34.72,0.03c5.23-0.07,10.59,2.31,13.31,6.92
	c3.97,5.99,4.25,13.4,3.98,20.35c-0.01,18.82,0.01,37.64-0.01,56.46c-5.86,0.02-11.71,0.04-17.56-0.03
	c-0.03-22.99,0.04-45.98-0.03-68.97c-3.53-0.01-7.05-0.01-10.57-0.02c-0.23,23.02,0.19,46.05-0.22,69.07
	c-5.8-0.07-11.6-0.02-17.39-0.04c-0.17-23-0.33-46-0.22-69c-2.01-0.02-4.03,0.03-6.02,0.02
	C566.72,167.46,566.75,162.48,566.77,157.57z"/>
</svg>
