<?xml version="1.0" encoding="utf-8"?>
<!-- Generator: Adobe Illustrator 25.2.0, SVG Export Plug-In . SVG Version: 6.00 Build 0)  -->
<svg version="1.1" id="Layer_1" xmlns="http://www.w3.org/2000/svg" xmlns:xlink="http://www.w3.org/1999/xlink" x="0px" y="0px"
	 viewBox="0 0 286.67 288" style="enable-background:new 0 0 286.67 288;" xml:space="preserve">
<style type="text/css">
	.st0{fill:#197AA5;}
	.st1{fill:#69B25D;}
</style>
<g>
	<path class="st0" d="M143.92,6.03c28.78,0.08,57.53,9.16,80.69,26.33c25.88,18.88,44.71,47.18,51.93,78.41
		c6.69,28.35,4,58.84-7.7,85.54c-11.49,26.5-31.74,49.06-56.79,63.43c3.25-6.14,5.54-12.89,5.61-19.9c0.02-10.75,0-21.51,0-32.26
		c-13.81-0.01-27.62,0.02-41.44-0.01c-0.04,13.58,0,27.16-0.01,40.75c-8.52,0.03-17.03-0.02-25.54,0.02
		c0.01,9.72-0.02,19.45,0.02,29.17c-2.26,0.16-4.51,0.3-6.77,0.41C143.92,187.29,143.93,96.66,143.92,6.03z M150.67,83.09
		c0,11.23,0.02,22.45-0.02,33.68c8.52,0.05,17.03,0,25.55,0.03c0.04,14.52-0.04,29.03,0.03,43.55c13.81-0.04,27.62-0.01,41.43-0.02
		c0.02-11.83-0.02-23.66,0.02-35.49c0.15-10.92-4.25-21.85-12.07-29.49c-7.6-7.86-18.48-12.36-29.41-12.28
		C167.69,83.09,159.18,83.08,150.67,83.09z"/>
</g>
<path class="st1" d="M62.17,33.76c12.26-9.4,26.21-16.5,40.87-21.31c0.33,24.37,0.27,48.76,0.04,73.14
	c-10.72-0.04-21.45-0.04-32.17-0.01c0.02,10.98-0.05,21.97,0.04,32.95c10.7,0,21.39,0,32.09,0.01c0.44,36.77,0.06,73.55,0.19,110.32
	c0.16,7.3-0.72,14.83,1.64,21.89c3.4,11.44,12.07,21.05,23,25.81c-18.36-1.7-36.17-8.07-52.07-17.3
	c-29.28-16.96-51.71-45.31-61.45-77.72c-8.05-26.49-7.77-55.44,0.8-81.76C23.63,73.68,40.27,50.3,62.17,33.76z"/>
</svg>
