<?xml version="1.0" encoding="utf-8"?>
<!-- Generator: Adobe Illustrator 25.2.0, SVG Export Plug-In . SVG Version: 6.00 Build 0)  -->
<svg version="1.1" id="Layer_1" xmlns="http://www.w3.org/2000/svg" xmlns:xlink="http://www.w3.org/1999/xlink" x="0px" y="0px"
	 viewBox="0 0 986 310" style="enable-background:new 0 0 986 310;" xml:space="preserve">
<style type="text/css">
	.st0{fill:#FFFFFF;}
</style>
<g>
	<path class="st0" d="M964.71,183.61c0,3.23-1.15,6.01-3.46,8.33c-2.3,2.32-5.07,3.48-8.29,3.48c-3.24,0-6.02-1.16-8.34-3.48
		c-2.31-2.32-3.47-5.1-3.47-8.35c0-3.24,1.15-6.02,3.46-8.34c2.31-2.31,5.1-3.47,8.38-3.47c3.22,0,5.98,1.16,8.27,3.47
		C963.56,177.57,964.71,180.35,964.71,183.61z M962.6,183.59c0-2.71-0.94-5.04-2.83-6.99c-1.89-1.95-4.15-2.92-6.78-2.92
		c-2.69,0-4.98,0.97-6.88,2.92c-1.89,1.94-2.84,4.28-2.84,7c0,2.75,0.95,5.09,2.85,7.03c1.9,1.94,4.18,2.91,6.83,2.91
		c2.64,0,4.9-0.97,6.8-2.91C961.65,188.68,962.6,186.34,962.6,183.59z M958.86,190.4h-3.06l-2.21-5.5h-3.26v5.5h-2.91v-13.6h6.31
		c1.73,0,3.01,0.38,3.86,1.13s1.27,1.72,1.27,2.91c0,1.69-0.84,2.89-2.52,3.59L958.86,190.4z M950.34,182.74h2.99
		c1.69,0,2.54-0.65,2.54-1.94c0-1.24-0.77-1.86-2.33-1.86h-3.21V182.74z"/>
</g>
<g>
	<path class="st0" d="M154.75,20.2c28.78,0.08,57.53,9.16,80.69,26.33c25.88,18.88,44.71,47.18,51.93,78.41
		c6.69,28.35,4,58.84-7.7,85.54c-11.49,26.5-31.74,49.06-56.79,63.43c3.25-6.14,5.54-12.89,5.61-19.9c0.02-10.75,0-21.51,0-32.26
		c-13.81-0.01-27.62,0.02-41.44-0.01c-0.04,13.58,0,27.16-0.01,40.75c-8.52,0.03-17.03-0.02-25.54,0.02
		c0.01,9.72-0.02,19.45,0.02,29.17c-2.26,0.16-4.51,0.3-6.77,0.41C154.75,201.46,154.76,110.83,154.75,20.2z M161.5,97.26
		c0,11.23,0.02,22.45-0.02,33.68c8.52,0.05,17.03,0,25.55,0.03c0.04,14.52-0.04,29.03,0.03,43.55c13.81-0.04,27.62-0.01,41.43-0.02
		c0.02-11.83-0.02-23.66,0.02-35.49c0.15-10.92-4.25-21.85-12.07-29.49c-7.6-7.86-18.48-12.36-29.41-12.28
		C178.52,97.26,170.01,97.25,161.5,97.26z"/>
</g>
<g>
	<path class="st0" d="M460.5,20.76c5.91-0.01,11.83-0.01,17.74-0.01c0.02,40.58,0.01,81.16,0.01,121.75
		c-9.7-0.02-19.4,0.04-29.1-0.02c-5.1-0.07-10.17-2.21-13.46-6.16c-3.35-3.54-4.55-8.54-4.45-13.29
		c0.05-15.69-0.05-31.37,0.04-47.05c0-6.33,3.49-12.58,9.12-15.57c6.09-3.59,13.42-1.68,20.09-2.16
		C460.51,45.75,460.49,33.26,460.5,20.76z M449.23,72.04c0.04,18.56,0.01,37.13,0.02,55.7c3.66,0.01,7.33,0.01,11,0.01
		c0.01-18.57-0.01-37.14,0.01-55.71C456.58,72.02,452.9,72.02,449.23,72.04z"/>
</g>
<path class="st0" d="M327.5,38.97c6-0.02,12-0.02,18,0c0,6.51-0.01,13.02,0.01,19.53c5.48-0.01,10.97,0.02,16.45-0.03
	c0.11,4.86,0.07,9.71,0.06,14.57c-5.51,0.01-11.02-0.01-16.52,0.01c0.01,18.48-0.01,36.97,0,55.45c7.75,0,15.49,0.01,23.23-0.01
	c0.03,4.58,0.01,9.17,0.02,13.75c-7.91,0.01-15.82,0-23.73,0.02c-7.63,0.24-14.84-5.43-16.75-12.76c-0.71-2.76-0.77-5.63-0.78-8.46
	c0.03-16-0.01-31.99,0.02-47.99c-2.67-0.01-5.34-0.01-8.02-0.02c0.02-4.84,0.01-9.68,0.01-14.52c2.66-0.02,5.32-0.02,7.99-0.01
	C327.51,51.99,327.5,45.48,327.5,38.97z"/>
<g>
	<path class="st0" d="M389.5,58.73c5.79-1.24,11.79-0.77,17.67-0.6c8.62,0.47,16.18,8.08,16.32,16.76c0.04,16.72,0,33.45,0.01,50.17
		c0.11,9.23-8.23,17.59-17.51,17.2c-6.27-0.41-12.9,1.07-18.87-1.38c-6.25-2.72-10.54-9.22-10.58-16.04
		c-0.09-16.28-0.04-32.57-0.02-48.85C376.39,68.18,381.94,60.71,389.5,58.73z M394.5,72.75c-0.01,18.58,0,37.16,0,55.74
		c3.66,0.01,7.33,0.01,11,0.01c-0.01-18.59,0.01-37.17-0.01-55.75C401.83,72.75,398.16,72.75,394.5,72.75z"/>
</g>
<g>
	<path class="st0" d="M499.45,58.68c5.11-0.9,10.36-0.23,15.52-0.45c7.46-0.45,14.7,4.64,17.06,11.67
		c1.19,3.23,1.02,6.73,1.02,10.11c-0.06,15,0.02,29.99-0.02,44.99c-0.04,6.4-3.83,12.67-9.62,15.46
		c-5.35,2.85-11.61,1.87-17.42,2.05c-5.22,0.17-10.77-1.15-14.47-5.07c-4.02-3.62-5.7-9.12-5.55-14.42
		c0.04-15.69-0.07-31.38,0.05-47.07C485.92,68.02,491.68,60.46,499.45,58.68z M504.03,73.03c0,18.5-0.02,36.99,0.01,55.48
		c3.63-0.01,7.27-0.02,10.92,0c0.01-18.49,0-36.98,0-55.47C511.31,73.04,507.67,73.04,504.03,73.03z"/>
</g>
<path class="st0" d="M73,47.93c12.26-9.4,26.21-16.5,40.87-21.31c0.33,24.37,0.27,48.76,0.04,73.14
	c-10.72-0.04-21.45-0.04-32.17-0.01c0.02,10.98-0.05,21.97,0.04,32.95c10.7,0,21.39,0,32.09,0.01c0.44,36.77,0.06,73.55,0.19,110.32
	c0.16,7.3-0.72,14.83,1.64,21.89c3.4,11.44,12.07,21.05,23,25.81c-18.36-1.7-36.17-8.07-52.07-17.3
	c-29.28-16.96-51.71-45.31-61.45-77.72c-8.05-26.49-7.77-55.44,0.8-81.76C34.46,87.85,51.1,64.47,73,47.93z"/>
<path class="st0" d="M841.57,163.14c6.71-7,13.32-14.11,20.18-20.97c2.56,2.5,5.15,4.99,7.5,7.7c-6.86,6.64-13.27,13.7-20.13,20.33
	C846.59,167.85,844.05,165.52,841.57,163.14z"/>
<path class="st0" d="M636.92,152.29c6.04-0.05,12.08-0.03,18.12-0.01c0.14,6.49-0.08,12.98,0.09,19.48
	c5.38-0.04,10.77-0.05,16.16-0.02c0.02,4.84,0.01,9.67,0,14.5c-5.39,0.04-10.77,0.05-16.14,0.01c-0.17,18.5,0,37-0.05,55.49
	c7.71-0.02,15.43-0.03,23.15,0.01c0.03,4.56,0.01,9.13,0.03,13.7c-8.73-0.14-17.48,0.77-26.19-0.02c-8.46-1-15.09-8.93-15.07-17.37
	c-0.28-17.26-0.01-34.54-0.13-51.8c-2.6,0.02-5.2,0.02-7.79,0.03c-0.29-4.85-0.32-9.72-0.02-14.57c2.6,0.01,5.2,0.01,7.81,0.02
	C636.93,165.26,636.89,158.77,636.92,152.29z"/>
<path class="st0" d="M334.32,172.54c5.42-1.47,11.11-0.61,16.65-0.8c7.34-0.12,14.33,4.81,16.68,11.77
	c2.02,6.96,0.68,14.36,1.03,21.51c-5.99,0.06-12,0.27-17.98-0.16c0-6.12,0.01-12.24-0.01-18.36c-3.65-0.02-7.31-0.03-10.96,0
	c0,18.4,0.01,36.79,0,55.19c3.66,0.04,7.32,0.05,10.98,0.03c-0.02-5.74,0-11.47-0.01-17.21c6-0.04,12-0.02,18-0.02
	c-0.39,8.71,2.03,19.26-5.21,25.93c-6.27,6.84-16.28,5.24-24.58,5.19c-9.2-0.06-17.26-8.44-16.96-17.64
	c0.07-16.33-0.14-32.67,0.1-49C321.83,181.52,327.33,174.69,334.32,172.54z"/>
<g>
	<path class="st0" d="M390.17,172.2c4.87-0.88,9.86-0.36,14.79-0.47c6.25-0.12,12.59,3.1,15.7,8.61c2.09,3.48,2.72,7.61,2.65,11.61
		c-0.09,15.34,0.08,30.68-0.06,46.01c0.02,8.24-6.25,16.01-14.42,17.37c-5.59,0.64-11.26,0.51-16.87,0.16
		c-8.59-0.78-15.78-8.78-15.48-17.44c0.01-16.36,0.02-32.72,0-49.08C376.41,181.09,382.54,173.85,390.17,172.2z M394.31,186.49
		c-0.09,18.41-0.03,36.81-0.04,55.22c3.68,0.03,7.35,0.03,11.03-0.05c-0.03-18.37,0-36.75-0.01-55.13
		C401.62,186.49,397.96,186.49,394.31,186.49z"/>
</g>
<path class="st0" d="M430.73,171.75c21.42-0.04,42.83-0.03,64.25-0.01c4.73-0.03,9.49,2.14,12.25,6.04
	c4.25,5.79,4.93,13.28,4.85,20.25c-0.12,19.34,0.17,38.69-0.14,58.03c-5.89-0.02-11.78,0.05-17.66-0.05
	c-0.01-23.17-0.01-46.33,0-69.49c-3.66-0.04-7.32-0.04-10.97-0.03c-0.02,23.14-0.01,46.27,0,69.41c-5.86,0.24-11.73,0.24-17.59,0.02
	c0-23.14,0.04-46.29-0.02-69.43c-3.66,0-7.33,0-10.99,0.03c-0.01,23.13-0.04,46.26,0.02,69.4c-5.94,0.22-11.88,0.19-17.81-0.01
	c-0.05-23.14,0.05-46.29-0.05-69.43c-2.05,0-4.1,0-6.14-0.01C430.68,181.56,430.68,176.65,430.73,171.75z"/>
<g>
	<path class="st0" d="M521.33,182.17c2.64-6.11,9.04-10.33,15.69-10.42c4.62-0.01,9.25-0.19,13.87,0.11
		c8.53,0.65,15.83,8.56,15.61,17.14c-0.02,15.69-0.04,31.38,0.01,47.07c0.72,6.7-2.45,13.69-8.34,17.11
		c-6.09,3.92-13.62,2.16-20.42,2.57c-0.02,12.38-0.01,24.76-0.01,37.13c-5.99,0.31-12.01,0.33-18,0.03
		c-0.02-31.66-0.01-63.31-0.01-94.97C519.84,192.67,519.06,187.11,521.33,182.17z M537.74,186.52c-0.01,18.46,0.03,36.91-0.03,55.37
		c3.67,0.06,7.35,0.06,11.02,0.01c-0.07-18.46,0.02-36.93-0.04-55.39C545.03,186.49,541.38,186.48,537.74,186.52z"/>
</g>
<path class="st0" d="M574.51,239.09c-0.03-22.45-0.05-44.91,0.02-67.37c5.91,0.03,11.82-0.01,17.73,0.02
	c0.02,23.33-0.02,46.65,0.02,69.97c3.67,0.04,7.35,0.04,11.03-0.06c-0.03-23.3-0.03-46.59,0-69.89c5.99-0.05,11.98-0.05,17.97-0.02
	c0.04,23.33,0.03,46.65,0.01,69.97c1.2,0,2.4,0,3.61,0.01c0.33,4.65,0.18,9.31,0.18,13.97c-10.67,0.07-21.34,0.07-32.01,0.02
	C583.73,256.24,574.69,248.6,574.51,239.09z"/>
<g>
	<path class="st0" d="M686.19,186.24c1.51-8.29,9.3-14.8,17.77-14.51c6.2,0.32,12.84-1.07,18.66,1.68
		c5.94,2.74,10.14,8.99,10.08,15.58c0.03,17.56-0.01,35.13,0.01,52.69c1.39,0.01,2.78,0.03,4.19,0.05c0.31,4.59,0.31,9.21-0.03,13.8
		c-10.64-0.2-21.27,0.21-31.9,0.18c-5.92,0.24-11.92-2.34-15.47-7.13c-2.81-3.55-3.64-8.2-3.58-12.62
		c0.07-7.03-0.11-14.07,0.22-21.09c0.36-8.29,7.59-15.48,15.81-16.11c4.24-0.21,8.5,0.02,12.75-0.07c0.01-4.07,0.01-8.14-0.04-12.2
		C705.17,186.44,695.68,186.16,686.19,186.24z M704.09,213.27c-0.07,9.49-0.06,18.98-0.01,28.47c3.54-0.01,7.08-0.01,10.62-0.03
		c0.01-9.47,0.01-18.93,0-28.4C711.16,213.3,707.62,213.3,704.09,213.27z"/>
</g>
<path class="st0" d="M745.05,188.99c-0.36-9.13,7.87-17.22,16.9-17.25c4.67,0.01,9.36-0.15,14.03,0.09
	c8.07,0.7,14.98,7.69,15.6,15.76c0.35,5.7,0.07,11.41,0.14,17.12c-6-0.03-12.01,0.07-18.01-0.06c0.02-6.06,0.03-12.11-0.01-18.16
	c-3.67,0-7.33,0-10.99,0.03c0,18.39-0.01,36.78,0.01,55.17c3.66,0.05,7.33,0.05,11.01,0.03c-0.01-5.74,0-11.48,0-17.21
	c5.99-0.05,11.98-0.01,17.97-0.03c-0.15,5.91,0.55,11.91-0.53,17.76c-1.73,7.29-8.57,13.09-16.09,13.34
	c-5.05,0.24-10.13,0.34-15.16-0.16c-8.42-1-15.18-8.94-14.99-17.39C744.97,221.68,744.79,205.33,745.05,188.99z"/>
<path class="st0" d="M799.52,255.7c0.02-28.03-0.07-56.07,0.04-84.1c4.74,0.27,9.85,1.02,13.51,4.36c3.42,2.97,5.05,7.55,4.98,12.01
	c0.01,22.58,0.04,45.16-0.01,67.74C811.86,255.75,805.69,255.75,799.52,255.7z"/>
<g>
	<path class="st0" d="M838.36,172.53c5.09-1.27,10.39-0.73,15.58-0.79c6.55-0.15,13.18,3.32,16.27,9.18
		c2.15,3.63,2.36,7.97,2.3,12.08c-0.12,15.34,0.12,30.7-0.11,46.04c-0.31,8.94-8.38,16.67-17.33,16.6
		c-6.78-0.11-14.2,1.23-20.39-2.28c-5.49-2.95-9.04-9.11-8.96-15.33c0.01-16.34-0.01-32.67,0.01-49.01
		C825.73,181.52,831.17,174.54,838.36,172.53z M843.52,186.52c-0.03,18.39,0.03,36.78-0.03,55.18c3.68,0.05,7.36,0.06,11.05-0.07
		c-0.11-18.37-0.02-36.74-0.05-55.11C850.83,186.48,847.17,186.48,843.52,186.52z"/>
</g>
<path class="st0" d="M880.27,171.74c11.57-0.01,22.8-0.06,34.72,0.03c5.23-0.07,10.59,2.31,13.31,6.92
	c3.97,5.99,4.25,13.4,3.98,20.35c-0.01,18.82,0.01,37.64-0.01,56.46c-5.86,0.02-11.71,0.04-17.56-0.03
	c-0.03-22.99,0.04-45.98-0.03-68.97c-3.53-0.01-7.05-0.01-10.57-0.02c-0.23,23.02,0.19,46.05-0.22,69.07
	c-5.8-0.07-11.6-0.02-17.39-0.04c-0.17-23-0.33-46-0.22-69c-2.01-0.02-4.03,0.03-6.02,0.02
	C880.22,181.62,880.25,176.65,880.27,171.74z"/>
</svg>
