<svg id="Layer_1" data-name="Layer 1" xmlns="http://www.w3.org/2000/svg" viewBox="0 0 286.67 288"><defs><style>.cls-1{fill:#fff;}</style></defs><path class="cls-1" d="M143.92,6c28.78.08,57.53,9.16,80.69,26.33a135.86,135.86,0,0,1-12.56,227.38c3.25-6.14,5.54-12.89,5.61-19.9,0-10.75,0-21.51,0-32.26-13.81,0-27.62,0-41.44,0,0,13.58,0,27.16,0,40.75-8.52,0-17,0-25.54,0,0,9.72,0,19.45,0,29.17-2.26.16-4.51.3-6.77.41Q143.92,142,143.92,6Zm6.75,77.06c0,11.23,0,22.45,0,33.68,8.52,0,17,0,25.55,0,0,14.52,0,29,0,43.55,13.81,0,27.62,0,41.43,0,0-11.83,0-23.66,0-35.49A41.57,41.57,0,0,0,176.2,83.07C167.69,83.09,159.18,83.08,150.67,83.09Z"/><path class="cls-1" d="M62.17,33.76A137.69,137.69,0,0,1,103,12.45c.33,24.37.27,48.76,0,73.14q-16.08-.06-32.17,0c0,11,0,22,0,33H103c.44,36.77.06,73.55.19,110.32.16,7.3-.72,14.83,1.64,21.89a41.46,41.46,0,0,0,23,25.81c-18.36-1.7-36.17-8.07-52.07-17.3A135.8,135.8,0,0,1,62.17,33.76Z"/></svg>